<svg xmlns="http://www.w3.org/2000/svg" xmlns:xlink="http://www.w3.org/1999/xlink"  zoomAndPan="magnify" viewBox="62.6 149.9 252.7 76.5"  preserveAspectRatio="xMidYMid meet" version="1.0"><defs><g/></defs><path stroke-linecap="round" transform="matrix(0.75, 0, 0, 0.75, 153.412334, 211.684145)" fill="none" stroke-linejoin="miter" d="M 1.002305 0.999265 L 26.481474 0.999265 " stroke="#518e39" stroke-width="2" stroke-opacity="1" stroke-miterlimit="4"/><path stroke-linecap="round" transform="matrix(0.75, 0, 0, 0.75, 289.312339, 211.684145)" fill="none" stroke-linejoin="miter" d="M 1.000215 0.999265 L 26.479383 0.999265 " stroke="#518e39" stroke-width="2" stroke-opacity="1" stroke-miterlimit="4"/><g fill="#ffffff" fill-opacity="1"><g transform="translate(149.61058, 197.622174)"><g><path d="M 2.796875 -28 L 10.71875 -28 L 10.71875 -6.28125 L 24.078125 -6.28125 L 24.078125 0 L 2.796875 0 Z M 2.796875 -28 "/></g></g></g><g fill="#ffffff" fill-opacity="1"><g transform="translate(174.008158, 197.622174)"><g><path d="M 25.28125 -6.125 L 25.28125 0 L 2.796875 0 L 2.796875 -28 L 24.765625 -28 L 24.765625 -21.875 L 10.640625 -21.875 L 10.640625 -17.15625 L 23.078125 -17.15625 L 23.078125 -11.234375 L 10.640625 -11.234375 L 10.640625 -6.125 Z M 25.28125 -6.125 "/></g></g></g><g fill="#ffffff" fill-opacity="1"><g transform="translate(200.885487, 197.622174)"><g><path d="M 25.28125 -6.125 L 25.28125 0 L 2.796875 0 L 2.796875 -28 L 24.765625 -28 L 24.765625 -21.875 L 10.640625 -21.875 L 10.640625 -17.15625 L 23.078125 -17.15625 L 23.078125 -11.234375 L 10.640625 -11.234375 L 10.640625 -6.125 Z M 25.28125 -6.125 "/></g></g></g><g fill="#ffffff" fill-opacity="1"><g transform="translate(227.762816, 197.622174)"><g><path d="M 15.59375 -28 C 18.132812 -28 20.335938 -27.578125 22.203125 -26.734375 C 24.066406 -25.898438 25.503906 -24.703125 26.515625 -23.140625 C 27.535156 -21.578125 28.046875 -19.742188 28.046875 -17.640625 C 28.046875 -15.535156 27.535156 -13.707031 26.515625 -12.15625 C 25.503906 -10.613281 24.066406 -9.421875 22.203125 -8.578125 C 20.335938 -7.734375 18.132812 -7.3125 15.59375 -7.3125 L 10.71875 -7.3125 L 10.71875 0 L 2.796875 0 L 2.796875 -28 Z M 15.125 -13.5625 C 16.75 -13.5625 17.972656 -13.914062 18.796875 -14.625 C 19.628906 -15.332031 20.046875 -16.335938 20.046875 -17.640625 C 20.046875 -18.941406 19.628906 -19.953125 18.796875 -20.671875 C 17.972656 -21.398438 16.75 -21.765625 15.125 -21.765625 L 10.71875 -21.765625 L 10.71875 -13.5625 Z M 15.125 -13.5625 "/></g></g></g><g fill="#ffffff" fill-opacity="1"><g transform="translate(256.839917, 197.622174)"><g><path d="M 25.28125 -6.125 L 25.28125 0 L 2.796875 0 L 2.796875 -28 L 24.765625 -28 L 24.765625 -21.875 L 10.640625 -21.875 L 10.640625 -17.15625 L 23.078125 -17.15625 L 23.078125 -11.234375 L 10.640625 -11.234375 L 10.640625 -6.125 Z M 25.28125 -6.125 "/></g></g></g><g fill="#ffffff" fill-opacity="1"><g transform="translate(283.717246, 197.622174)"><g><path d="M 15.046875 -7.4375 L 10.71875 -7.4375 L 10.71875 0 L 2.796875 0 L 2.796875 -28 L 15.59375 -28 C 18.132812 -28 20.335938 -27.578125 22.203125 -26.734375 C 24.066406 -25.898438 25.503906 -24.703125 26.515625 -23.140625 C 27.535156 -21.578125 28.046875 -19.742188 28.046875 -17.640625 C 28.046875 -15.609375 27.570312 -13.835938 26.625 -12.328125 C 25.675781 -10.828125 24.320312 -9.648438 22.5625 -8.796875 L 28.59375 0 L 20.125 0 Z M 20.046875 -17.640625 C 20.046875 -18.941406 19.628906 -19.953125 18.796875 -20.671875 C 17.972656 -21.398438 16.75 -21.765625 15.125 -21.765625 L 10.71875 -21.765625 L 10.71875 -13.5625 L 15.125 -13.5625 C 16.75 -13.5625 17.972656 -13.914062 18.796875 -14.625 C 19.628906 -15.332031 20.046875 -16.335938 20.046875 -17.640625 Z M 20.046875 -17.640625 "/></g></g></g><g fill="#ffffff" fill-opacity="1"><g transform="translate(178.507391, 216.934145)"><g><path d="M 1.578125 -10.5 L 3.078125 -10.5 L 3.078125 -1.3125 L 8.765625 -1.3125 L 8.765625 0 L 1.578125 0 Z M 1.578125 -10.5 "/></g></g></g><g fill="#ffffff" fill-opacity="1"><g transform="translate(188.947389, 216.934145)"><g><path d="M 8.265625 -2.625 L 2.6875 -2.625 L 1.53125 0 L -0.015625 0 L 4.734375 -10.5 L 6.21875 -10.5 L 11 0 L 9.421875 0 Z M 7.734375 -3.828125 L 5.46875 -8.96875 L 3.203125 -3.828125 Z M 7.734375 -3.828125 "/></g></g></g><g fill="#ffffff" fill-opacity="1"><g transform="translate(200.85738, 216.934145)"><g><path d="M 16.40625 -10.5 L 12.90625 0 L 11.328125 0 L 8.453125 -8.390625 L 5.59375 0 L 3.984375 0 L 0.484375 -10.5 L 2.03125 -10.5 L 4.859375 -1.96875 L 7.8125 -10.5 L 9.1875 -10.5 L 12.09375 -1.921875 L 14.984375 -10.5 Z M 16.40625 -10.5 "/></g></g></g><g fill="#ffffff" fill-opacity="1"><g transform="translate(219.007366, 216.934145)"><g><path d="M 10.609375 -10.5 L 10.609375 0 L 9.375 0 L 3.078125 -7.828125 L 3.078125 0 L 1.578125 0 L 1.578125 -10.5 L 2.8125 -10.5 L 9.109375 -2.671875 L 9.109375 -10.5 Z M 10.609375 -10.5 "/></g></g></g><g fill="#ffffff" fill-opacity="1"><g transform="translate(232.672366, 216.934145)"><g/></g></g><g fill="#ffffff" fill-opacity="1"><g transform="translate(238.192366, 216.934145)"><g><path d="M 6.265625 0.125 C 5.210938 0.125 4.265625 -0.109375 3.421875 -0.578125 C 2.578125 -1.046875 1.914062 -1.6875 1.4375 -2.5 C 0.957031 -3.3125 0.71875 -4.226562 0.71875 -5.25 C 0.71875 -6.269531 0.957031 -7.1875 1.4375 -8 C 1.914062 -8.8125 2.578125 -9.453125 3.421875 -9.921875 C 4.273438 -10.390625 5.226562 -10.625 6.28125 -10.625 C 7.101562 -10.625 7.851562 -10.484375 8.53125 -10.203125 C 9.21875 -9.929688 9.800781 -9.523438 10.28125 -8.984375 L 9.296875 -8.046875 C 8.503906 -8.867188 7.519531 -9.28125 6.34375 -9.28125 C 5.5625 -9.28125 4.851562 -9.101562 4.21875 -8.75 C 3.59375 -8.40625 3.101562 -7.925781 2.75 -7.3125 C 2.394531 -6.695312 2.21875 -6.007812 2.21875 -5.25 C 2.21875 -4.488281 2.394531 -3.800781 2.75 -3.1875 C 3.101562 -2.570312 3.59375 -2.085938 4.21875 -1.734375 C 4.851562 -1.390625 5.5625 -1.21875 6.34375 -1.21875 C 7.507812 -1.21875 8.492188 -1.632812 9.296875 -2.46875 L 10.28125 -1.53125 C 9.800781 -0.988281 9.21875 -0.578125 8.53125 -0.296875 C 7.84375 -0.015625 7.085938 0.125 6.265625 0.125 Z M 6.265625 0.125 "/></g></g></g><g fill="#ffffff" fill-opacity="1"><g transform="translate(250.267369, 216.934145)"><g><path d="M 8.265625 -2.625 L 2.6875 -2.625 L 1.53125 0 L -0.015625 0 L 4.734375 -10.5 L 6.21875 -10.5 L 11 0 L 9.421875 0 Z M 7.734375 -3.828125 L 5.46875 -8.96875 L 3.203125 -3.828125 Z M 7.734375 -3.828125 "/></g></g></g><g fill="#ffffff" fill-opacity="1"><g transform="translate(262.732365, 216.934145)"><g><path d="M 8.59375 0 L 6.328125 -3.21875 C 6.046875 -3.195312 5.828125 -3.1875 5.671875 -3.1875 L 3.078125 -3.1875 L 3.078125 0 L 1.578125 0 L 1.578125 -10.5 L 5.671875 -10.5 C 7.023438 -10.5 8.09375 -10.171875 8.875 -9.515625 C 9.65625 -8.867188 10.046875 -7.976562 10.046875 -6.84375 C 10.046875 -6.03125 9.84375 -5.335938 9.4375 -4.765625 C 9.039062 -4.203125 8.472656 -3.789062 7.734375 -3.53125 L 10.234375 0 Z M 5.625 -4.46875 C 6.570312 -4.46875 7.296875 -4.671875 7.796875 -5.078125 C 8.296875 -5.492188 8.546875 -6.082031 8.546875 -6.84375 C 8.546875 -7.601562 8.296875 -8.179688 7.796875 -8.578125 C 7.296875 -8.984375 6.570312 -9.1875 5.625 -9.1875 L 3.078125 -9.1875 L 3.078125 -4.46875 Z M 5.625 -4.46875 "/></g></g></g><g fill="#ffffff" fill-opacity="1"><g transform="translate(275.122367, 216.934145)"><g><path d="M 9.1875 -1.3125 L 9.1875 0 L 1.578125 0 L 1.578125 -10.5 L 8.984375 -10.5 L 8.984375 -9.1875 L 3.078125 -9.1875 L 3.078125 -5.96875 L 8.34375 -5.96875 L 8.34375 -4.6875 L 3.078125 -4.6875 L 3.078125 -1.3125 Z M 9.1875 -1.3125 "/></g></g></g><path fill="#ffffff" d="M 78.597656 152.90625 C 79.445312 152.867188 80.519531 152.894531 81.386719 152.894531 L 102.660156 152.894531 C 102.617188 154.007812 102.648438 155.398438 102.660156 156.527344 C 100.675781 157.007812 99.34375 157.53125 99.105469 159.78125 C 98.886719 161.835938 98.953125 163.847656 98.953125 165.910156 L 98.949219 174.972656 L 98.957031 191.109375 C 98.960938 194.234375 98.910156 197.511719 98.988281 200.617188 C 98.988281 202.46875 99.023438 204.488281 98.980469 206.324219 C 98.917969 206.625 98.9375 206.972656 98.949219 207.28125 C 98.992188 208.578125 99.351562 209.359375 100.328125 210.199219 C 94.535156 213.132812 88.632812 215.359375 82.125 216.121094 C 81.183594 216.234375 79.523438 216.417969 78.589844 216.304688 C 78.519531 215.511719 78.609375 214.382812 78.566406 213.507812 C 79.496094 213.378906 80.269531 213.171875 81.011719 212.566406 C 81.871094 211.867188 82.097656 210.859375 82.183594 209.800781 C 82.273438 208.683594 82.253906 207.515625 82.25 206.394531 L 82.238281 201.632812 L 82.230469 186.695312 L 82.230469 163.835938 C 82.230469 163.484375 82.246094 163.109375 82.230469 162.753906 C 82.152344 160.855469 82.554688 158.136719 80.480469 157.136719 C 79.957031 156.882812 79.167969 156.617188 78.585938 156.570312 C 78.609375 155.367188 78.59375 154.117188 78.597656 152.90625 Z M 78.597656 152.90625 " fill-opacity="1" fill-rule="nonzero"/><path fill="#528f3a" d="M 145.167969 157.648438 C 140.285156 164.433594 137.863281 171.90625 135.378906 179.773438 C 134.511719 182.519531 133.574219 185.480469 132.480469 188.121094 C 130.59375 192.730469 128.03125 197.03125 124.871094 200.878906 C 122.542969 203.730469 119.875 206.1875 117.019531 208.492188 C 116.460938 208.949219 115.894531 209.386719 115.316406 209.8125 C 114.949219 210.074219 114.105469 210.644531 113.820312 210.925781 C 113.667969 211.097656 112.273438 211.980469 112.003906 212.15625 C 107.492188 215.167969 102.671875 217.683594 97.625 219.664062 C 96.46875 220.109375 95.335938 220.527344 94.160156 220.910156 C 93.453125 221.136719 92.410156 221.339844 91.765625 221.660156 C 91.378906 221.695312 90.71875 221.863281 90.320312 221.953125 C 89.515625 222.148438 88.703125 222.332031 87.894531 222.507812 C 82.507812 223.636719 73.820312 224.058594 68.9375 220.902344 C 67.289062 219.832031 66.128906 218.40625 65.726562 216.453125 C 65.199219 213.886719 66.285156 210.910156 67.726562 208.796875 C 69.121094 206.742188 71.269531 204.917969 73.328125 203.558594 C 73.515625 203.4375 74.167969 202.96875 74.320312 202.941406 C 74.265625 203.035156 74.121094 203.140625 74.03125 203.226562 C 72.074219 205.164062 70.25 207.8125 70.15625 210.640625 C 70.097656 211.898438 70.46875 213.199219 71.371094 214.109375 C 73.257812 216.011719 76.070312 216.257812 78.589844 216.304688 C 79.523438 216.417969 81.183594 216.234375 82.125 216.121094 C 88.632812 215.359375 94.535156 213.132812 100.328125 210.199219 C 100.734375 210.070312 101.769531 209.46875 102.164062 209.246094 C 104.507812 207.921875 106.769531 206.453125 108.9375 204.851562 C 115.65625 199.804688 121.382812 193.554688 125.828125 186.421875 C 130.53125 179 134.238281 171.007812 139.480469 163.945312 C 141.066406 161.8125 143.089844 159.320312 145.167969 157.648438 Z M 145.167969 157.648438 " fill-opacity="1" fill-rule="nonzero"/><path fill="#ffffff" d="M 136.601562 203.75 C 137.476562 204.042969 139.085938 204.664062 139.949219 205.066406 L 135.019531 216.871094 C 134.445312 218.277344 133.546875 220.285156 133.078125 221.667969 L 91.765625 221.660156 C 92.410156 221.339844 93.453125 221.136719 94.160156 220.910156 C 95.335938 220.527344 96.46875 220.109375 97.625 219.664062 C 102.671875 217.683594 107.492188 215.167969 112.003906 212.15625 C 112.273438 211.980469 113.667969 211.097656 113.820312 210.925781 C 114.613281 210.832031 115.777344 210.886719 116.597656 210.886719 L 122.863281 210.898438 C 127.613281 210.933594 131.320312 211.039062 134.75 206.921875 C 135.621094 205.875 136.039062 204.972656 136.601562 203.75 Z M 136.601562 203.75 " fill-opacity="1" fill-rule="nonzero"/><path fill="#528f3a" d="M 98.988281 200.617188 C 101.832031 199.417969 103.292969 198.429688 105.824219 196.597656 C 114.203125 190.527344 121.15625 182.324219 126.28125 173.363281 C 127.570312 171.113281 128.722656 168.804688 129.75 166.421875 C 129.835938 166.230469 129.878906 166.089844 129.980469 165.894531 L 130.019531 165.890625 C 129.972656 166.183594 129.820312 166.652344 129.734375 166.964844 C 125.941406 180.921875 117.347656 193.769531 105.597656 202.261719 C 103.464844 203.804688 101.265625 205.074219 98.980469 206.324219 C 99.023438 204.488281 98.988281 202.46875 98.988281 200.617188 Z M 98.988281 200.617188 " fill-opacity="1" fill-rule="nonzero"/></svg>